<!DOCTYPE svg PUBLIC "-//W3C//DTD SVG 1.1//EN" "http://www.w3.org/Graphics/SVG/1.1/DTD/svg11.dtd">
<!-- Uploaded to: SVG Repo, www.svgrepo.com, Transformed by: SVG Repo Mixer Tools -->
<svg width="800px" height="800px" viewBox="0 0 24.00 24.00" fill="none" xmlns="http://www.w3.org/2000/svg" stroke="#">
<g id="SVGRepo_bgCarrier" stroke-width="0"/>
<g id="SVGRepo_tracerCarrier" stroke-linecap="round" stroke-linejoin="round" stroke="#000" stroke-width="1.056"/>
<g id="SVGRepo_iconCarrier"> <path d="M16 18V17C16 15.8954 16.8954 15 18 15C19.1046 15 20 15.8954 20 17V18M16.9527 11C16.9839 10.7366 17 10.47 17 10.2C17 6.22355 13.866 3 10 3C6.13401 3 3 6.22355 3 10.2C3 14.1764 6.5 17.4 10 21C10.3344 20.6561 10.6687 20.3156 11 19.9776M16.5 21H19.5C19.9659 21 20.1989 21 20.3827 20.9239C20.6277 20.8224 20.8224 20.6277 20.9239 20.3827C21 20.1989 21 19.9659 21 19.5C21 19.0341 21 18.8011 20.9239 18.6173C20.8224 18.3723 20.6277 18.1776 20.3827 18.0761C20.1989 18 19.9659 18 19.5 18H16.5C16.0341 18 15.8011 18 15.6173 18.0761C15.3723 18.1776 15.1776 18.3723 15.0761 18.6173C15 18.8011 15 19.0341 15 19.5C15 19.9659 15 20.1989 15.0761 20.3827C15.1776 20.6277 15.3723 20.8224 15.6173 20.9239C15.8011 21 16.0341 21 16.5 21ZM13 10C13 11.6569 11.6569 13 10 13C8.34315 13 7 11.6569 7 10C7 8.34315 8.34315 7 10 7C11.6569 7 13 8.34315 13 10Z" stroke="#e74c3c" stroke-width="1.512" stroke-linecap="round" stroke-linejoin="round"/> </g>
</svg>